<svg id="圖層_1" data-name="圖層 1" xmlns="http://www.w3.org/2000/svg" viewBox="0 0 849.09 131.98"><defs><style>.cls-1{fill:#fff;}.cls-2{fill:none;stroke:#fff;stroke-miterlimit:10;stroke-width:2.5px;}</style></defs><path class="cls-1" d="M528.75,72.58c-2,2-3.77,3.89-5.51,5.81a2.19,2.19,0,0,0-.27,1.33q0,22.34,0,44.67a6.45,6.45,0,0,1-6.83,6.86c-5.88,0-11.76.06-17.64,0a7.5,7.5,0,0,1-6.36-3,6.28,6.28,0,0,1-1.15-3.4Q490.89,67,490.91,9.27a5.48,5.48,0,0,1,2.52-4.75,9,9,0,0,1,5.27-1.68c5.79,0,11.59,0,17.39,0A6.46,6.46,0,0,1,523,9.65V43.19c1.23-1.12,2.31-2.07,3.37-3,4.84-4.51,9.67-9,14.53-13.54,6-5.53,11.94-11,17.91-16.56,1.55-1.43,3-3,4.62-4.34a10.86,10.86,0,0,1,7.51-2.88c6.56.1,13.11.05,19.67,0,1.46,0,2.63.38,3.23,1.75a3.52,3.52,0,0,1-.82,4c-1.41,1.57-2.89,3.08-4.36,4.6Q578.11,24,567.56,34.92C561.74,40.94,556,47,550.09,53.1q3.6,4.5,7.16,9l45.16,56.6q2.76,3.45,5.5,6.92a4.5,4.5,0,0,1,1.06,3.32,2.45,2.45,0,0,1-2.44,2.33c-8.6,0-17.2.14-25.79-.09-2.21-.06-4.4-1.26-6.57-2-.34-.12-.58-.54-.83-.84L529.12,73.15A6.51,6.51,0,0,1,528.75,72.58Z"/><path class="cls-1" d="M752.2,56.75h53.4A9,9,0,0,1,814.84,64c.79,3.51.54,7-1.72,9.92A8.54,8.54,0,0,1,806,77.35q-26.2,0-52.41,0H752.1v1.39q0,13.24,0,26.47c0,3.72,1.71,5.44,5.39,5.44q26.34,0,52.66,0a9.32,9.32,0,0,1,9.58,9.37,18,18,0,0,1-.46,4.62,8.63,8.63,0,0,1-8.58,6.63c-26,0-52,0-78,0-6.37,0-12.91-4.4-12.91-12.83q0-51.32,0-102.64c0-8.2,6.23-12.87,13-12.89,24.35-.06,48.69,0,73,0A9,9,0,0,1,814.84,10a13,13,0,0,1-.51,7.87A8.9,8.9,0,0,1,806,23.45H757c-3.06,0-4.91,1.7-4.93,4.76,0,9.38,0,18.76,0,28.14A2.17,2.17,0,0,0,752.2,56.75Z"/><path class="cls-1" d="M273.61,39.16c-1.59,3.76-3.06,7.24-4.54,10.71Q258.78,74,248.48,98.08q-6.16,14.44-12.27,28.91a6.41,6.41,0,0,1-6.42,4.27H208.68c-3.32,0-4.93-2.13-3.69-5.21,1.45-3.62,3.16-7.13,4.78-10.68q11.72-25.58,23.45-51.14c8.27-18,16.49-36.07,24.88-54C261,4,266,.25,273.09,0s13.15,3.07,16.36,10.05,6.46,14.21,9.71,21.3Q306.33,47,313.54,62.62q7.66,16.67,15.32,33.32,6.79,14.76,13.57,29.52a6.67,6.67,0,0,1,.55,2.42,3.23,3.23,0,0,1-3.43,3.36c-7.51,0-15,.08-22.55,0a5.63,5.63,0,0,1-5-3.26c-1.42-2.8-2.63-5.71-3.87-8.6q-17-39.61-34-79.23A10.44,10.44,0,0,0,273.61,39.16Z"/><path class="cls-1" d="M34.37,131.26H9.66A9.22,9.22,0,0,1,0,122.2a12.58,12.58,0,0,1,1.07-6.65A8.5,8.5,0,0,1,9,110.68c13-.06,25.91,0,38.86-.07a15.83,15.83,0,0,0,5.36-1c4.41-1.64,6.19-6.5,4.38-11.25a19.25,19.25,0,0,0-5.45-7.17C47.46,86.88,42.7,82.64,38,78.38L23.66,65.5c-3.79-3.41-7.72-6.68-11.35-10.26A26.75,26.75,0,0,1,4.78,39.45a32.22,32.22,0,0,1,4.53-22c3.56-5.77,8.88-9.38,15-11.93a39.94,39.94,0,0,1,15.42-2.9c12.72,0,25.43,0,38.15,0a9.29,9.29,0,0,1,9.57,8.77c.24,3.1,0,6.16-2.17,8.7a8.41,8.41,0,0,1-6.57,3.12c-9.48,0-18.95,0-28.43,0a13,13,0,0,0-6.13,1.34C39,27.25,37.58,32.89,41.08,38a41.68,41.68,0,0,0,6,6.59C52.26,49.37,57.54,54,62.79,58.75c7,6.29,14,12.53,21,18.84a27.28,27.28,0,0,1,9.44,20.68,33,33,0,0,1-7,21.26c-3.56,4.55-8.45,7.34-13.81,9.32a40.94,40.94,0,0,1-14.55,2.41C50,131.24,42.2,131.26,34.37,131.26Z"/><path class="cls-1" d="M391,74.6v49.69c0,4.55-2.41,7-6.94,7-5.8,0-11.6.1-17.39-.07a12.47,12.47,0,0,1-5-1.41,5.38,5.38,0,0,1-3-5.12q0-29.34,0-58.68c0-2.9,2.08-5.11,5.29-5.73q12.68-2.47,25.37-4.92c13.31-2.58,26.63-5.09,39.93-7.75,4.16-.83,7.78-2.77,9.9-6.67,3.68-6.8.35-14.59-7.16-16.74a17.81,17.81,0,0,0-4.7-.69q-29.75-.06-59.5,0a9.37,9.37,0,0,1-9.72-9.13,12.06,12.06,0,0,1,1.22-6.86A8.38,8.38,0,0,1,367,2.87c21.67,0,43.34-.17,65,0A39.28,39.28,0,0,1,456.18,11c6.59,5.13,9.85,12.07,10.62,20.26a29.22,29.22,0,0,1-2.09,15,29.27,29.27,0,0,1-10.63,12.32,51.72,51.72,0,0,1-19.9,7.78c-14.27,2.67-28.52,5.43-42.78,8.15A3.13,3.13,0,0,0,391,74.6Z"/><path class="cls-1" d="M144.59,74.54v49.68c0,4.63-2.4,7-7,7-5.79,0-11.59,0-17.39,0a8.34,8.34,0,0,1-5.8-2.16,6,6,0,0,1-2-4.58q0-29.22,0-58.45a5.88,5.88,0,0,1,4.84-5.73q16.56-3.24,33.12-6.43c10.8-2.09,21.62-4.12,32.41-6.28,4.21-.85,7.87-2.8,10-6.73,3.66-6.76.36-14.5-7.08-16.67a17.94,17.94,0,0,0-4.93-.73q-29.75-.06-59.5,0a9.34,9.34,0,0,1-9.57-9,12.1,12.1,0,0,1,1.23-7,8.41,8.41,0,0,1,7.6-4.58c21.63,0,43.26-.18,64.89.07,9.35.11,18.12,2.75,25.42,9,6,5.13,8.83,11.87,9.53,19.59A28.79,28.79,0,0,1,217.91,47c-2.89,6-7.57,10.17-13.24,13.4a56.74,56.74,0,0,1-18.13,6.16c-9,1.65-18,3.42-27,5.14Z"/><path class="cls-1" d="M615.57,64.07c0-17.85.06-35.69,0-53.53,0-5.55,4-7.6,7.76-7.66,5.87-.11,11.75,0,17.63,0a6.64,6.64,0,0,1,7,6.83c0,.32,0,.64,0,1v95c0,3.38,1.67,5.05,5.09,5.05h47.74a9.29,9.29,0,0,1,9.31,8.64c.24,3.21,0,6.31-2.25,8.88a8.63,8.63,0,0,1-6.73,3.08q-26.93,0-53.85,0c-6.08,0-12.16,0-18.23,0-6.69,0-13.51-4.13-13.48-13.41C615.61,99.91,615.57,82,615.57,64.07Z"/><path class="cls-1" d="M418.68,76.94,448,70.63c.86,2.7,1.71,5.34,2.54,8q5.14,16.27,10.28,32.55c1.31,4.18,2.56,8.37,4,12.52,1.2,3.53-.69,7.35-5.36,7.51-6.86.22-13.75.18-20.62,0a7.24,7.24,0,0,1-7.26-5.65c-4.26-16.12-8.6-32.22-12.91-48.33C418.62,77.19,418.64,77.14,418.68,76.94Z"/><path class="cls-1" d="M839.6,121.41l3.42,5.36c-2,.41-2,.4-3-1.16a24.28,24.28,0,0,1-1.67-2.75c-.58-1.35-1.5-1.7-3-1.31v5.33h-2.13V114c2.42.12,4.84.08,7.21.39,1.56.2,2.28,1.46,2.33,3.17a3.21,3.21,0,0,1-2.06,3.41C840.4,121.13,840.07,121.24,839.6,121.41Zm-4.18-1.73c1.32-.06,2.55-.05,3.76-.19a1.65,1.65,0,0,0,1.51-1.81,1.53,1.53,0,0,0-1.45-1.72c-1.24-.14-2.5-.13-3.82-.19Z"/><circle class="cls-2" cx="837.74" cy="120.62" r="10.1"/></svg>