<?xml version="1.0" encoding="utf-8"?>
<!-- Generator: Adobe Illustrator 25.4.1, SVG Export Plug-In . SVG Version: 6.00 Build 0)  -->
<svg version="1.1" id="圖層_1" xmlns="http://www.w3.org/2000/svg" xmlns:xlink="http://www.w3.org/1999/xlink" x="0px" y="0px"
	 viewBox="0 0 40 40" style="enable-background:new 0 0 40 40;" xml:space="preserve">
<style type="text/css">
	.st0{fill:#707070;}
</style>
<path id="Icon_awesome-laptop" class="st0" d="M39,30.1H23.9c0,1.1-0.9,1.9-1.9,2.1h-0.1h-3.8c-1.1,0-1.9-0.9-2.1-2.1H1
	c-0.5,0-1,0.4-1,1v1c0,2.2,1.8,4,4,4h32.1c2.2,0,4-1.8,4-4v-1C40.1,30.5,39.7,30.1,39,30.1z M36.1,6.9c0-1.6-1.3-3-3-3H6.9
	c-1.6,0-3,1.3-3,3V28H36V6.9H36.1z M32,24H8V8h24.1L32,24z"/>
</svg>
